<svg width="648" height="622" viewBox="0 0 648 622" fill="none" xmlns="http://www.w3.org/2000/svg">
<path d="M433.899 525.585H422.515V525.913H433.899V525.585Z" fill="#EBEBEB"/>
<path d="M99.1143 380.673H192.386C194.54 380.673 196.673 381.097 198.663 381.921C200.653 382.746 202.461 383.954 203.984 385.477C205.507 387 206.715 388.808 207.539 390.798C208.363 392.787 208.787 394.92 208.787 397.074V480.914C208.787 485.264 207.059 489.436 203.984 492.511C200.908 495.587 196.736 497.315 192.386 497.315H99.1143V380.725V380.673Z" fill="#F0F0F0"/>
<path d="M99.8874 380.673H98.3416C89.2835 380.673 81.9404 388.016 81.9404 397.074V480.862C81.9404 489.92 89.2835 497.263 98.3416 497.263H99.8874C108.946 497.263 116.289 489.92 116.289 480.862V397.074C116.289 388.016 108.946 380.673 99.8874 380.673Z" fill="#F5F5F5"/>
<path d="M111.599 497.263H233.337V423.68H111.599L111.599 497.263Z" fill="#F0F0F0"/>
<path d="M101.604 500.944H321.016C321.906 500.941 322.759 500.584 323.388 499.953C324.016 499.322 324.369 498.468 324.369 497.577V497.263H192.439L98.25 497.577C98.25 498.468 98.6029 499.322 99.2315 499.953C99.86 500.584 100.713 500.941 101.604 500.944Z" fill="#E0E0E0"/>
<path d="M197.705 332.308H310.968C313.898 332.253 316.805 332.823 319.497 333.981C322.189 335.139 324.603 336.857 326.578 339.022C328.553 341.186 330.043 343.747 330.95 346.534C331.857 349.32 332.159 352.268 331.836 355.18L324.369 440.33H165.361L172.815 355.18C173.449 348.983 176.331 343.234 180.918 339.019C185.505 334.804 191.477 332.416 197.705 332.308Z" fill="#E0E0E0"/>
<path d="M179.811 332.308H295.287C298.074 332.262 300.839 332.809 303.398 333.913C305.957 335.018 308.252 336.654 310.13 338.713C312.008 340.772 313.427 343.207 314.292 345.857C315.157 348.506 315.448 351.309 315.147 354.08L307.588 440.317H148.567L156.126 354.08C156.728 348.182 159.47 342.709 163.835 338.697C168.199 334.685 173.883 332.412 179.811 332.308Z" fill="#F5F5F5"/>
<path d="M121.358 416.96H217.788C220.525 416.96 223.151 418.048 225.087 419.983C227.023 421.919 228.11 424.545 228.11 427.283V436.597C228.112 437.954 227.846 439.297 227.328 440.551C226.81 441.805 226.05 442.945 225.092 443.905C224.133 444.865 222.994 445.626 221.741 446.146C220.488 446.665 219.144 446.933 217.788 446.933H121.358C117.384 446.933 113.572 445.354 110.761 442.543C107.951 439.733 106.372 435.921 106.372 431.946C106.372 427.972 107.951 424.16 110.761 421.349C113.572 418.539 117.384 416.96 121.358 416.96Z" fill="#E0E0E0"/>
<path d="M233.874 380.673H327.146C331.496 380.673 335.668 382.401 338.743 385.477C341.819 388.552 343.547 392.724 343.547 397.074V480.914C343.547 485.264 341.819 489.436 338.743 492.511C335.668 495.587 331.496 497.315 327.146 497.315H233.874V380.725V380.673Z" fill="#F0F0F0"/>
<path d="M234.647 380.673H233.101C224.043 380.673 216.7 388.016 216.7 397.074V480.862C216.7 489.92 224.043 497.263 233.101 497.263H234.647C243.705 497.263 251.048 489.92 251.048 480.862V397.074C251.048 388.016 243.705 380.673 234.647 380.673Z" fill="#F5F5F5"/>
<path d="M491.263 316.588H401.594V500.944H491.263V316.588Z" fill="#F0F0F0"/>
<path d="M415.008 486.586V330.945H412.938V486.586H415.008Z" fill="#E6E6E6"/>
<path d="M478.046 330.945H412.938V333.565H478.046V330.945Z" fill="#E6E6E6"/>
<path d="M583.003 316.588H493.333V500.944H583.003V316.588Z" fill="#F0F0F0"/>
<path d="M583.016 500.944H594.885V316.588H583.016V500.944Z" fill="#E0E0E0"/>
<path d="M506.747 486.586V330.945H504.677V486.586H506.747Z" fill="#E6E6E6"/>
<path d="M493.346 500.944V318.684H491.276V500.944H493.346Z" fill="#E6E6E6"/>
<path d="M569.785 330.945H504.678V333.565H569.785V330.945Z" fill="#E6E6E6"/>
<path d="M487.333 357.368H482.879V398.109H487.333V357.368Z" fill="#E0E0E0"/>
<path d="M501.717 357.368H497.263V398.109H501.717V357.368Z" fill="#E0E0E0"/>
<path d="M558.204 124.345H100.988V287.427H558.204V124.345Z" fill="#E0E0E0"/>
<path d="M554.012 124.345H96.7959V287.427H554.012V124.345Z" fill="#F0F0F0"/>
<path d="M540.297 273.711V138.061L110.512 138.061V273.711H540.297Z" fill="#FAFAFA"/>
<path d="M180.282 273.711L208.762 138.061H271.629L243.149 273.711H180.282Z" fill="white"/>
<path d="M269.677 273.711L298.156 138.061H329.596L301.104 273.711H269.677Z" fill="white"/>
<path d="M461.618 273.711L490.098 138.061H521.538L493.045 273.711H461.618Z" fill="white"/>
<path d="M327.5 560.104C467.778 560.104 581.496 553.464 581.496 545.274C581.496 537.084 467.778 530.445 327.5 530.445C187.222 530.445 73.5039 537.084 73.5039 545.274C73.5039 553.464 187.222 560.104 327.5 560.104Z" fill="#F5F5F5"/>
<path d="M217.46 151.488C220.761 143.93 191.522 137.078 182.679 160.37C174.662 181.5 161.352 186.898 167.614 201.53C174.387 217.368 212.705 219.268 229.342 201.714C242.835 187.474 228.189 181.474 230.075 168.086C231.962 154.698 228.005 150.336 217.46 151.488Z" fill="#263238"/>
<path d="M164.196 196.841C162.676 188.588 165.742 185.182 169.619 180.872C174.859 175.555 178.449 168.835 179.955 161.523C180.736 157.53 182.733 153.876 185.671 151.062C188.61 148.248 192.346 146.411 196.369 145.803C205.015 144.205 214.172 147.034 216.596 150.624C216.982 151.13 217.202 151.742 217.225 152.378C217.248 153.014 217.074 153.641 216.727 154.174L215.626 153.467C215.838 153.15 215.941 152.773 215.92 152.392C215.899 152.012 215.754 151.649 215.508 151.357C213.36 148.161 204.635 145.607 196.618 147.1C190.894 148.161 183.518 151.567 181.239 161.811C179.687 169.342 175.988 176.262 170.589 181.736C166.816 185.928 164.039 188.968 165.493 196.592L164.196 196.841Z" fill="#263238"/>
<path d="M146.183 190.566L145.371 187.946C144.81 186.165 143.794 184.562 142.423 183.295L139.803 180.911C138.975 180.145 137.904 179.693 136.777 179.633C135.65 179.573 134.538 179.909 133.633 180.584L130.83 182.68C130.317 183.062 129.886 183.543 129.561 184.094C129.236 184.645 129.023 185.255 128.935 185.889C128.848 186.522 128.886 187.167 129.05 187.785C129.213 188.404 129.497 188.984 129.887 189.492L131.694 191.85C131.694 191.85 135.939 199.028 142.083 201.517L143.497 200.312C144.851 199.13 145.827 197.575 146.305 195.842C146.782 194.11 146.74 192.275 146.183 190.566Z" fill="#FFC3BD"/>
<path d="M197.103 236.049L196.264 236.691L195.583 237.189L194.273 238.106C193.395 238.682 192.505 239.219 191.653 239.743C189.871 240.768 188.034 241.695 186.151 242.52C182.279 244.228 178.208 245.443 174.034 246.136C169.626 246.877 165.127 246.903 160.711 246.214C158.451 245.859 156.231 245.284 154.082 244.498C153.545 244.328 153.008 244.105 152.484 243.883L151.698 243.555L151.305 243.385L150.873 243.201L150.323 242.939C149.179 242.354 148.125 241.608 147.192 240.726C146.521 240.101 145.903 239.422 145.345 238.695C143.862 236.685 142.664 234.481 141.781 232.145C140.995 230.206 140.393 228.346 139.856 226.525C138.878 223.002 138.087 219.429 137.485 215.822C136.288 208.852 135.618 201.802 135.48 194.731C135.318 193.408 135.667 192.072 136.455 190.997C137.244 189.921 138.412 189.187 139.723 188.943C141.034 188.699 142.389 188.964 143.511 189.684C144.634 190.405 145.439 191.525 145.764 192.819V192.963C148.043 199.238 150.231 205.67 152.536 211.775C153.729 214.814 154.881 217.84 156.191 220.591C156.82 221.966 157.501 223.276 158.143 224.416C158.58 225.251 159.141 226.015 159.807 226.682C159.807 226.682 159.807 226.682 159.715 226.499C159.414 226.186 159.059 225.929 158.667 225.739L158.418 225.608C158.34 225.608 158.183 225.516 158.274 225.543H158.484L158.89 225.647C159.16 225.731 159.436 225.797 159.715 225.844C160.821 226.065 161.942 226.2 163.069 226.25C165.427 226.322 167.785 226.075 170.077 225.516C172.593 224.882 175.041 224.005 177.387 222.896C178.605 222.346 179.811 221.704 180.99 221.062C181.579 220.735 182.156 220.381 182.706 220.041L184.016 219.202L185.038 218.56C187.339 217.097 190.119 216.583 192.792 217.125C195.465 217.667 197.824 219.224 199.374 221.469C200.923 223.713 201.543 226.471 201.102 229.163C200.662 231.855 199.195 234.271 197.011 235.905L197.103 236.049Z" fill="#FFC3BD"/>
<path d="M220.08 539.563C228.372 536.825 235.354 531.218 233.953 521.38C233.337 517.162 246.869 515.511 246.869 515.511C245.337 528.912 247.013 531.231 248.625 534.257C250.236 537.283 250.144 540.991 247.315 541.318C243.961 541.724 243.214 541.318 239.049 541.908C234.175 542.549 231.018 545.091 221.285 545.091C216.032 545.091 217.46 540.427 220.08 539.563Z" fill="#7F5AF0"/>
<path d="M245.298 396.419C246.254 329.295 240.058 292.706 240.058 292.706L190.396 295.182C190.396 295.182 197.745 356.595 210.792 401.829C214.277 426.104 222.124 467.159 227.56 494.735C235.627 494.044 243.602 492.534 251.363 490.228C253.262 466.006 253.603 430.99 245.298 396.419Z" fill="#7F5AF0"/>
<path d="M246.372 522.087C246.372 522.087 248.31 509.407 249.62 490.228C243.03 492.523 236.193 494.035 229.25 494.735C232.08 511.476 234.097 522.14 234.097 522.14C238.067 523.568 242.414 523.549 246.372 522.087Z" fill="#FFC3BD"/>
<path d="M224.848 486.704C225.28 489.01 226.486 494.787 227.678 496.817C227.747 496.935 227.842 497.035 227.955 497.11C228.069 497.185 228.198 497.233 228.333 497.25C237.594 498.416 246.843 496.555 250.603 494.879C250.708 494.836 250.803 494.773 250.882 494.691C250.961 494.61 251.022 494.513 251.061 494.407C252.109 491.63 252.489 485.787 252.607 483.324C252.614 483.191 252.59 483.058 252.537 482.936C252.485 482.813 252.405 482.704 252.304 482.617C252.203 482.53 252.083 482.467 251.954 482.433C251.825 482.399 251.69 482.395 251.559 482.421C242.975 484.011 234.306 485.096 225.595 485.669C225.476 485.683 225.361 485.722 225.257 485.783C225.154 485.843 225.064 485.925 224.994 486.022C224.923 486.12 224.874 486.231 224.849 486.348C224.824 486.465 224.824 486.587 224.848 486.704Z" fill="#263238"/>
<path d="M191.05 216.255C183.688 217.565 172.461 223.787 172.461 223.787C172.461 223.787 166.553 237.935 173.627 248.127C180.596 249.778 184.107 248.428 184.107 248.428L191.05 216.255Z" fill="#263238"/>
<path opacity="0.2" d="M173.628 248.127C180.597 249.778 184.108 248.428 184.108 248.428L183.859 229.342C179.13 235.708 175.187 242.022 173.628 248.127Z" fill="black"/>
<path opacity="0.2" d="M245.035 356.818C239.481 343.233 233.507 332.046 231.215 321.828C227.285 349.613 230.376 375.171 245.324 393.485C245.494 379.965 245.35 367.73 245.035 356.818Z" fill="black"/>
<path d="M320.95 463.347L301.13 477.443C284.951 456.365 260.69 424.165 254.821 410.148C239.913 374.581 209.94 296.178 209.94 296.178L248.847 287.139C248.847 287.139 273.397 309.933 289.235 395.948C302.492 414.785 313.653 442.505 320.95 463.347Z" fill="#7F5AF0"/>
<path d="M319.81 530.157C324.749 520.502 324.814 509.865 319.483 501.481C317.19 497.892 328.836 490.805 328.836 490.805C332.949 503.656 336.303 504.402 339.159 506.394C342.015 508.385 342.303 512.668 339.892 514.123C337.262 515.669 335.021 517.797 333.342 520.345C330.356 524.275 328.679 529.672 324.395 533.039C321.657 535.174 317.635 534.388 319.81 530.157Z" fill="#7F5AF0"/>
<path d="M330.998 496.7C330.998 496.7 327.579 484.674 320.871 466.661C315.806 471.459 310.201 475.653 304.169 479.159C313.64 493.254 320.57 503.381 320.57 503.381C324.597 502.16 328.206 499.848 330.998 496.7Z" fill="#FFC3BD"/>
<path d="M296.847 473.657C298.157 475.569 301.667 480.351 303.593 481.7C303.706 481.78 303.835 481.833 303.971 481.855C304.107 481.878 304.247 481.87 304.379 481.831C313.287 479.08 320.951 473.565 323.754 470.46C323.833 470.377 323.892 470.278 323.928 470.169C323.964 470.06 323.977 469.945 323.964 469.831C323.78 466.884 321.71 461.395 320.806 459.102C320.757 458.981 320.681 458.872 320.584 458.784C320.487 458.695 320.371 458.63 320.246 458.592C320.12 458.555 319.987 458.546 319.858 458.566C319.728 458.586 319.605 458.635 319.496 458.71C312.348 463.697 304.912 468.259 297.226 472.373C297.11 472.424 297.006 472.5 296.922 472.596C296.838 472.692 296.775 472.805 296.739 472.927C296.703 473.049 296.694 473.177 296.712 473.303C296.731 473.43 296.777 473.55 296.847 473.657Z" fill="#263238"/>
<path d="M179.811 235.8C181.593 247.393 174.689 256.38 185.313 261.725C183.544 270.541 186.164 288.148 190.37 295.13C196.278 298.339 225.176 293.597 248.796 287.126C248.455 277.039 240.163 257.192 242.468 224.154C242.592 222.347 242.335 220.534 241.714 218.832C241.092 217.13 240.12 215.578 238.86 214.276C237.6 212.975 236.081 211.952 234.401 211.275C232.72 210.598 230.917 210.282 229.106 210.347C227.063 210.347 224.888 210.543 222.687 210.74C214.95 211.236 207.258 212.287 199.671 213.884C197.221 214.46 194.693 215.115 192.295 215.796C188.128 217.027 184.556 219.742 182.255 223.428C179.955 227.114 179.085 231.516 179.811 235.8Z" fill="#263238"/>
<path d="M196.5 226.984C196.5 226.984 203.901 224.285 207.779 230.914C214.237 227.285 223.316 211.945 222.674 210.779C211.866 213.753 196.5 226.984 196.5 226.984Z" fill="white"/>
<path d="M196.5 226.984C196.5 226.984 190.88 226.316 189.295 231.294C189.295 221.469 195.924 215.285 198.819 214.133C197.81 216.7 196.5 226.984 196.5 226.984Z" fill="white"/>
<path d="M219.844 184.776C219.019 192.439 218.888 204.753 222.687 210.792C222.687 210.792 208.277 220.656 196.487 226.984C192.78 218.403 198.806 214.133 198.806 214.133C204.425 211.984 204.373 204.792 203.613 199.29L219.844 184.776Z" fill="#FFC3BD"/>
<path opacity="0.2" d="M203.64 199.29L212.81 191.037C213.118 192.577 213.018 194.171 212.521 195.662C210.933 199.955 207.881 203.55 203.902 205.814C204.046 203.636 203.958 201.449 203.64 199.29Z" fill="black"/>
<path d="M222.805 170.536C221.495 182.981 221.298 188.26 214.879 194.417C205.211 203.679 190.5 199.434 188.076 186.885C185.889 175.579 188.286 157.134 200.443 152.641C212.6 148.148 224.01 158.104 222.805 170.536Z" fill="#FFC3BD"/>
<path d="M220.08 179.64C218.159 177.801 217.037 175.282 216.953 172.625C216.87 169.967 217.833 167.382 219.635 165.427C222.91 162.113 227.495 168.977 227.495 168.977L220.08 179.64Z" fill="#263238"/>
<path d="M204.897 173.981C204.897 175.003 204.281 175.802 203.587 175.776C202.893 175.75 202.421 174.898 202.46 173.889C202.5 172.881 203.076 172.068 203.77 172.095C204.465 172.121 204.936 172.92 204.897 173.981Z" fill="#263238"/>
<path d="M192.4 173.68C192.4 174.688 191.797 175.488 191.09 175.461C190.382 175.435 189.924 174.597 189.963 173.575C190.003 172.553 190.566 171.767 191.273 171.793C191.981 171.82 192.439 172.658 192.4 173.68Z" fill="#263238"/>
<path d="M191.562 171.859L189.151 171.06C189.151 171.06 190.33 173.012 191.562 171.859Z" fill="#263238"/>
<path d="M195.478 174.073C194.466 176.357 193.143 178.49 191.548 180.413C192.051 180.801 192.633 181.075 193.253 181.215C193.873 181.355 194.516 181.359 195.137 181.225L195.478 174.073Z" fill="#ED847E"/>
<path d="M200.888 185.208C200.32 185.288 199.745 185.314 199.172 185.286C199.094 185.283 199.021 185.25 198.967 185.194C198.914 185.138 198.884 185.063 198.884 184.985C198.885 184.946 198.895 184.907 198.912 184.871C198.928 184.835 198.952 184.803 198.981 184.776C199.01 184.749 199.045 184.728 199.082 184.715C199.119 184.701 199.159 184.695 199.198 184.697C200.46 184.772 201.721 184.551 202.881 184.05C204.042 183.55 205.068 182.784 205.879 181.815C205.9 181.783 205.928 181.755 205.96 181.733C205.992 181.712 206.028 181.697 206.066 181.69C206.103 181.682 206.142 181.683 206.18 181.691C206.218 181.699 206.254 181.714 206.285 181.736C206.318 181.759 206.346 181.787 206.368 181.82C206.389 181.854 206.404 181.891 206.412 181.93C206.419 181.969 206.418 182.009 206.41 182.047C206.402 182.086 206.386 182.123 206.364 182.156C205.006 183.847 203.041 184.942 200.888 185.208Z" fill="#263238"/>
<path d="M224.874 180.963C224.388 181.992 223.688 182.906 222.821 183.642C221.953 184.379 220.938 184.921 219.844 185.234C217.054 185.928 215.757 182.863 216.621 179.797C217.394 177.033 219.792 173.352 222.543 174.02C225.294 174.688 226.224 178.278 224.874 180.963Z" fill="#FFC3BD"/>
<path d="M216.36 152.838C207.541 158.339 197.639 161.874 187.33 163.2C187.33 154.253 204.832 144.205 216.36 152.838Z" fill="#263238"/>
<path d="M209.6 153.925C207.569 161.785 227.94 176.195 224.01 190.055C230.665 179.693 225.87 156.375 225.87 156.375C225.87 156.375 208.709 145.515 209.6 153.925Z" fill="#263238"/>
<path d="M207.504 167.3C207.424 167.289 207.348 167.261 207.28 167.218C207.213 167.175 207.155 167.118 207.111 167.051C206.706 166.42 206.159 165.892 205.512 165.512C204.866 165.132 204.139 164.91 203.39 164.863C203.312 164.867 203.235 164.855 203.162 164.827C203.089 164.8 203.022 164.758 202.966 164.704C202.909 164.65 202.865 164.586 202.834 164.514C202.803 164.442 202.788 164.365 202.788 164.287C202.784 164.207 202.797 164.128 202.825 164.053C202.853 163.979 202.896 163.911 202.951 163.853C203.006 163.796 203.072 163.75 203.145 163.719C203.219 163.687 203.298 163.671 203.377 163.671C204.323 163.712 205.245 163.98 206.066 164.452C206.887 164.924 207.582 165.586 208.093 166.383C208.138 166.447 208.169 166.52 208.185 166.596C208.201 166.673 208.202 166.752 208.187 166.829C208.173 166.905 208.143 166.979 208.1 167.044C208.057 167.109 208.001 167.165 207.936 167.208C207.873 167.251 207.803 167.282 207.729 167.297C207.655 167.313 207.578 167.314 207.504 167.3Z" fill="#263238"/>
<path d="M186.871 166.868C186.718 166.857 186.574 166.792 186.465 166.684C186.41 166.63 186.366 166.564 186.336 166.492C186.306 166.42 186.29 166.343 186.29 166.265C186.29 166.187 186.306 166.11 186.336 166.038C186.366 165.966 186.41 165.901 186.465 165.846C187.119 165.159 187.927 164.639 188.823 164.329C189.718 164.02 190.675 163.929 191.613 164.064C191.767 164.099 191.901 164.192 191.987 164.325C192.073 164.457 192.103 164.617 192.072 164.772C192.056 164.849 192.026 164.922 191.981 164.987C191.937 165.052 191.881 165.107 191.815 165.15C191.749 165.193 191.675 165.222 191.598 165.235C191.52 165.249 191.441 165.248 191.364 165.23C190.621 165.135 189.865 165.218 189.16 165.47C188.454 165.723 187.818 166.139 187.303 166.684C187.189 166.8 187.034 166.866 186.871 166.868Z" fill="#263238"/>
<path d="M204.059 172.16L201.648 171.374C201.648 171.374 202.814 173.326 204.059 172.16Z" fill="#263238"/>
<path opacity="0.2" d="M242.154 230.56C241.918 237.554 242.15 244.557 242.848 251.52C236.298 244.603 228.071 231.542 227.534 224.992L242.154 230.56Z" fill="black"/>
<path d="M284.925 205.958L286.353 197.64L299.282 202.631C299.282 202.631 296.283 210.373 290.767 213.792L289.235 212.823C288.033 212.091 287.018 211.09 286.27 209.899C285.522 208.707 285.061 207.358 284.925 205.958Z" fill="#FFC3BD"/>
<path d="M294.423 193.002L298.68 195.321C299.61 195.826 300.303 196.678 300.607 197.691C300.912 198.705 300.803 199.798 300.305 200.731L299.296 202.631L286.366 197.64L289.445 193.959C290.039 193.252 290.858 192.771 291.764 192.597C292.67 192.423 293.609 192.566 294.423 193.002Z" fill="#FFC3BD"/>
<path d="M239.848 215.456L241.498 217.159L243.293 218.98C244.511 220.172 245.73 221.39 246.987 222.543C249.476 224.888 252.044 227.062 254.625 229.093C257.059 231.002 259.644 232.71 262.354 234.202C264.426 235.367 266.68 236.173 269.021 236.586L265.498 237.241C264.633 237.66 264.685 237.844 264.869 237.699C265.223 237.463 265.548 237.186 265.838 236.874C266.797 235.877 267.673 234.803 268.458 233.665C270.24 231.136 272.048 228.267 273.698 225.294C275.349 222.32 277.104 219.268 278.794 216.124L283.838 206.797V206.718C284.429 205.606 285.396 204.741 286.567 204.278C287.737 203.814 289.035 203.781 290.227 204.186C291.419 204.591 292.429 205.406 293.075 206.487C293.721 207.568 293.962 208.843 293.754 210.085C293.152 213.857 292.326 217.421 291.409 221.049C290.492 224.678 289.51 228.267 288.2 231.87C286.916 235.585 285.393 239.212 283.641 242.73C282.625 244.71 281.474 246.619 280.196 248.441C279.389 249.566 278.486 250.618 277.497 251.585C276.032 253.046 274.303 254.215 272.401 255.031C271.468 255.428 270.468 255.646 269.454 255.673H268.877C263.701 255.703 258.578 254.626 253.852 252.516C251.765 251.624 249.728 250.622 247.747 249.516C245.852 248.398 244.022 247.241 242.258 246.044C238.83 243.644 235.565 241.018 232.486 238.184C230.979 236.796 229.486 235.394 228.058 233.914C227.35 233.18 226.63 232.446 225.936 231.673C225.241 230.901 224.626 230.193 223.774 229.211C221.891 227.126 220.913 224.379 221.056 221.573C221.198 218.768 222.449 216.134 224.534 214.25C226.618 212.367 229.366 211.39 232.171 211.532C234.977 211.674 237.611 212.926 239.494 215.01L239.848 215.456Z" fill="#FFC3BD"/>
<path d="M229.682 210.412C239.285 210.7 248.835 222.202 248.835 222.202C248.835 222.202 245.14 237.464 234.621 244.04C228.7 239.429 223.683 235.734 223.683 235.734C215.312 223.46 218.102 215.312 229.682 210.412Z" fill="#263238"/>
<path d="M188.457 294.278C189.164 298.379 190.015 301.601 190.291 302.584C190.317 302.688 190.364 302.786 190.43 302.871C190.495 302.957 190.577 303.028 190.67 303.081C192.072 303.854 198.465 307.012 210.203 306.317C223.303 305.61 242.52 298.457 252.489 290.846C252.635 290.734 252.739 290.577 252.786 290.399C252.834 290.222 252.821 290.033 252.751 289.864C251.981 288.157 251.084 286.51 250.066 284.938C249.966 284.787 249.821 284.672 249.651 284.611C249.481 284.55 249.296 284.545 249.123 284.597C244.826 285.907 217.774 293.649 189.282 293.309C189.161 293.309 189.042 293.336 188.932 293.387C188.822 293.438 188.725 293.512 188.646 293.604C188.568 293.696 188.51 293.804 188.478 293.92C188.445 294.037 188.438 294.159 188.457 294.278Z" fill="#7F5AF0"/>
<path opacity="0.3" d="M188.457 294.278C189.164 298.379 190.015 301.601 190.291 302.584C190.317 302.688 190.364 302.786 190.43 302.871C190.495 302.957 190.577 303.028 190.67 303.081C192.072 303.854 198.465 307.012 210.203 306.317C223.303 305.61 242.52 298.457 252.489 290.846C252.635 290.734 252.739 290.577 252.786 290.399C252.834 290.222 252.821 290.033 252.751 289.864C251.981 288.157 251.084 286.51 250.066 284.938C249.966 284.787 249.821 284.672 249.651 284.611C249.481 284.55 249.296 284.545 249.123 284.597C244.826 285.907 217.774 293.649 189.282 293.309C189.161 293.309 189.042 293.336 188.932 293.387C188.822 293.438 188.725 293.512 188.646 293.604C188.568 293.696 188.51 293.804 188.478 293.92C188.445 294.037 188.438 294.159 188.457 294.278Z" fill="white"/>
<path d="M450.993 506.197H278.519C275.329 506.227 272.167 505.596 269.233 504.344C266.298 503.092 263.655 501.247 261.468 498.924C259.282 496.601 257.6 493.85 256.528 490.845C255.456 487.841 255.017 484.647 255.24 481.464L276.2 122.983C276.678 116.329 279.635 110.096 284.486 105.517C289.337 100.937 295.729 98.3444 302.4 98.25H474.914C478.104 98.2206 481.265 98.8516 484.2 100.103C487.134 101.355 489.778 103.201 491.964 105.524C494.151 107.847 495.833 110.597 496.905 113.602C497.976 116.606 498.415 119.8 498.192 122.983L477.167 481.464C476.689 488.114 473.736 494.343 468.891 498.922C464.045 503.5 457.659 506.096 450.993 506.197Z" fill="#7F5AF0"/>
<path opacity="0.8" d="M450.993 506.197H278.519C275.329 506.227 272.167 505.596 269.233 504.344C266.298 503.092 263.655 501.247 261.468 498.924C259.282 496.601 257.6 493.85 256.528 490.845C255.456 487.841 255.017 484.647 255.24 481.464L276.2 122.983C276.678 116.329 279.635 110.096 284.486 105.517C289.337 100.937 295.729 98.3444 302.4 98.25H474.914C478.104 98.2206 481.265 98.8516 484.2 100.103C487.134 101.355 489.778 103.201 491.964 105.524C494.151 107.847 495.833 110.597 496.905 113.602C497.976 116.606 498.415 119.8 498.192 122.983L477.167 481.464C476.689 488.114 473.736 494.343 468.891 498.922C464.045 503.5 457.659 506.096 450.993 506.197Z" fill="white"/>
<path d="M449.972 499.018H282.292C280.05 499.04 277.829 498.597 275.767 497.719C273.705 496.84 271.847 495.544 270.31 493.913C268.773 492.281 267.591 490.349 266.837 488.238C266.083 486.128 265.774 483.884 265.93 481.648L286.89 124.725C287.226 120.061 289.294 115.692 292.687 112.475C296.081 109.259 300.555 107.427 305.23 107.341H472.91C475.152 107.321 477.373 107.766 479.436 108.646C481.498 109.526 483.355 110.823 484.892 112.455C486.428 114.088 487.611 116.021 488.365 118.132C489.118 120.244 489.427 122.488 489.272 124.725L468.312 481.648C467.975 486.31 465.907 490.678 462.513 493.893C459.119 497.107 454.645 498.935 449.972 499.018Z" fill="#7F5AF0"/>
<path d="M448.164 497.106H280.484C278.242 497.126 276.02 496.681 273.958 495.801C271.896 494.921 270.039 493.624 268.502 491.992C266.965 490.359 265.783 488.426 265.029 486.315C264.276 484.203 263.967 481.959 264.122 479.722L285.082 122.799C285.418 118.136 287.486 113.766 290.88 110.55C294.273 107.333 298.747 105.502 303.422 105.416H471.102C473.344 105.396 475.566 105.84 477.628 106.72C479.69 107.6 481.548 108.897 483.084 110.53C484.621 112.162 485.803 114.095 486.557 116.207C487.311 118.318 487.62 120.563 487.464 122.799L466.504 479.722C466.168 484.386 464.1 488.755 460.707 491.972C457.313 495.188 452.839 497.02 448.164 497.106Z" fill="white"/>
<path opacity="0.1" d="M443.265 483.835H286.89C285.505 483.848 284.132 483.573 282.857 483.03C281.583 482.486 280.435 481.684 279.485 480.676C278.535 479.667 277.804 478.472 277.338 477.168C276.872 475.863 276.681 474.476 276.777 473.093L285.58 324.212C285.787 321.323 287.069 318.616 289.175 316.627C291.28 314.639 294.055 313.512 296.951 313.47H453.26C454.646 313.458 456.019 313.732 457.293 314.276C458.568 314.819 459.716 315.621 460.665 316.63C461.615 317.639 462.346 318.833 462.812 320.138C463.278 321.443 463.469 322.83 463.373 324.212L454.636 473.093C454.429 475.982 453.147 478.689 451.041 480.678C448.936 482.667 446.161 483.794 443.265 483.835Z" fill="#7F5AF0"/>
<path opacity="0.1" d="M408.537 131.891H362.962C362.467 131.896 361.976 131.798 361.52 131.604C361.065 131.41 360.654 131.123 360.315 130.763C359.975 130.402 359.714 129.975 359.547 129.509C359.38 129.043 359.312 128.547 359.347 128.053C359.419 127.017 359.878 126.046 360.632 125.332C361.387 124.619 362.382 124.215 363.421 124.201H408.982C409.483 124.189 409.981 124.281 410.444 124.473C410.907 124.665 411.324 124.951 411.67 125.314C412.015 125.677 412.281 126.108 412.45 126.58C412.619 127.051 412.687 127.553 412.65 128.053C412.578 129.094 412.113 130.069 411.349 130.781C410.586 131.494 409.581 131.89 408.537 131.891Z" fill="#7F5AF0"/>
<path opacity="0.1" d="M426.668 275.583C454.732 248.33 456.648 204.782 430.947 178.317C405.247 151.851 361.662 152.49 333.598 179.743C305.534 206.996 303.618 250.543 329.318 277.009C355.019 303.474 398.604 302.836 426.668 275.583Z" fill="#7F5AF0"/>
<path d="M331.954 273.227C326.219 267.122 321.808 259.898 318.997 252.008C316.186 244.118 315.036 235.732 315.618 227.377H316.928C316.36 235.553 317.487 243.758 320.237 251.478C322.987 259.199 327.301 266.268 332.91 272.244L331.954 273.227Z" fill="#7F5AF0"/>
<path d="M444.64 227.94L443.331 227.861C443.688 222.091 443.247 216.298 442.021 210.648L443.331 210.36C444.583 216.13 445.024 222.047 444.64 227.94Z" fill="#7F5AF0"/>
<path d="M438.221 199.251C435.015 192.138 430.429 185.732 424.728 180.405C419.028 175.078 412.326 170.935 405.013 168.217L405.471 166.986C412.952 169.759 419.806 173.994 425.633 179.444C431.461 184.894 436.145 191.449 439.413 198.727L438.221 199.251Z" fill="#7F5AF0"/>
<path d="M420.681 269.418C445.138 245.668 446.81 207.72 424.416 184.66C402.022 161.599 364.041 162.158 339.585 185.908C315.128 209.658 313.456 247.605 335.85 270.666C358.244 293.726 396.224 293.168 420.681 269.418Z" fill="#7F5AF0"/>
<path d="M373.468 235.8C376.35 235.158 377.699 232.695 378.315 229.892C378.38 229.591 378.433 229.302 378.485 229.014V228.752C378.642 227.584 378.73 226.407 378.747 225.228C375.957 224.952 373.366 223.66 371.467 221.597C369.569 219.534 368.495 216.844 368.451 214.041C368.306 208.482 369.539 202.973 372.04 198.007C371.396 198.091 370.786 198.344 370.272 198.74C370.222 198.778 370.164 198.805 370.103 198.818C370.042 198.832 369.979 198.832 369.918 198.819C369.804 198.799 369.702 198.739 369.63 198.648C369.56 198.55 369.531 198.429 369.548 198.309C369.565 198.19 369.627 198.082 369.721 198.007C370.536 197.391 371.53 197.06 372.551 197.063C372.747 196.749 372.931 196.421 373.127 196.12C372.289 196.12 371.477 196.12 370.691 196.12C371.555 190.068 383.201 184.985 391.14 189.57C394.677 190.278 400.519 195.334 400.519 195.334C400.637 198.555 400.545 201.78 400.244 204.989C399.72 210.465 398.423 216.897 395.266 220.486C396.052 218.65 396.341 216.64 396.105 214.657C395.348 215.405 394.409 215.942 393.38 216.216C393.007 217.018 392.568 217.789 392.07 218.521C390.839 224.141 389.961 231.621 391.834 235.931C393.524 236.036 395.162 236.193 396.72 236.363L397.1 236.429C398.129 235.825 399.118 235.155 400.061 234.425C411.851 225.255 399.34 214.486 402.288 204.622C405.235 194.758 402.746 191.011 394.69 190.697C398.03 185.365 376.808 176.85 367.481 193.395C359.032 208.395 356.307 215.888 359.346 227.613C360.488 231.445 363.077 234.682 366.564 236.638C367.158 236.476 367.762 236.353 368.372 236.272C370.036 236.114 371.765 235.931 373.468 235.8Z" fill="#263238"/>
<path d="M355.141 258.856C354.66 258.005 354.223 257.131 353.831 256.236C352.94 258.856 352.062 261.476 351.211 264.096C350.398 266.454 349.626 268.812 348.813 271.065L347.595 274.248L347.071 275.558C346.888 275.912 347.071 275.703 347.071 275.807C346.513 276.458 345.894 277.054 345.224 277.589C345.08 277.733 344.896 277.864 344.739 277.995C348.364 280.44 352.264 282.449 356.359 283.982C356.451 277.995 357.184 271.773 357.97 270.109C353.254 266.834 353.962 263.31 355.141 258.856Z" fill="#FFC3BD"/>
<path d="M359.726 241.184L359.398 241.643C359.503 241.485 359.621 241.341 359.739 241.197L359.726 241.184Z" fill="#263238"/>
<path d="M356.7 249.961C356.681 247.077 357.555 244.258 359.202 241.891C356.69 245.843 354.625 250.06 353.045 254.467C353.045 254.467 353.281 255.162 353.779 256.249C354.17 257.144 354.608 258.019 355.089 258.869C356.023 255.985 356.565 252.989 356.7 249.961Z" fill="#263238"/>
<path d="M402.367 268.969C400.814 266.687 399.434 264.292 398.24 261.804C397.847 262.013 397.441 262.223 397.022 262.406C393.092 258.253 389.738 254.9 389.738 254.9C384.839 244.682 387.865 238.865 397.153 236.494C398.594 236.791 399.97 237.346 401.214 238.132C399.989 237.271 398.581 236.705 397.101 236.481L396.721 236.416C395.162 236.245 393.524 236.088 391.834 235.983C392.201 236.94 383.791 249.083 378.512 251.009C376.35 245.56 370.285 245.193 370.285 245.193C370.285 245.193 364.626 244.027 362.87 247.59C364.023 240.228 371.11 236.35 373.468 235.8C371.765 235.944 370.036 236.128 368.372 236.337C367.762 236.419 367.158 236.542 366.564 236.704C363.869 237.443 361.478 239.022 359.739 241.21C359.621 241.354 359.504 241.499 359.399 241.656L359.202 241.905C357.555 244.272 356.681 247.091 356.7 249.974C356.581 252.996 356.056 255.987 355.141 258.869C353.962 263.271 353.255 266.847 357.879 270.122C357.093 271.786 356.36 277.982 356.268 283.995C362.778 286.409 369.669 287.633 376.612 287.611C385.503 287.597 394.286 285.672 402.367 281.964C402.142 277.088 402.181 272.204 402.485 267.332C402.445 267.856 402.393 268.432 402.367 268.969Z" fill="#263238"/>
<path d="M370.284 245.193C370.284 245.193 376.349 245.559 378.511 251.009C383.751 249.018 392.2 236.94 391.834 235.983C391.834 235.983 379.9 241.774 370.284 245.193Z" fill="white"/>
<path d="M373.494 235.8C371.136 236.363 364.049 240.241 362.896 247.59C364.652 244.027 370.311 245.193 370.311 245.193C368.477 238.302 373.494 235.8 373.494 235.8Z" fill="white"/>
<path d="M392.07 218.573C390.931 220.225 389.491 221.647 387.826 222.765C387.125 223.27 386.38 223.708 385.599 224.075C383.883 226.83 381.324 228.957 378.302 230.141V229.918C377.686 232.721 376.337 235.158 373.455 235.826C373.455 235.826 368.438 238.341 370.245 245.232C379.874 241.813 391.795 236.062 391.795 236.062C389.961 231.687 390.839 224.193 392.07 218.573Z" fill="#FFC3BD"/>
<path d="M378.341 229.879C378.406 229.577 378.459 229.289 378.511 229.001C378.459 229.25 378.406 229.577 378.341 229.879Z" fill="#263238"/>
<path opacity="0.2" d="M378.341 229.879C378.406 229.577 378.459 229.289 378.511 229.001C378.459 229.25 378.406 229.577 378.341 229.879Z" fill="black"/>
<path d="M378.813 225.215C378.795 226.394 378.708 227.571 378.551 228.739C378.714 227.571 378.801 226.394 378.813 225.215Z" fill="#263238"/>
<path opacity="0.2" d="M378.813 225.215C378.795 226.394 378.708 227.571 378.551 228.739C378.714 227.571 378.801 226.394 378.813 225.215Z" fill="black"/>
<path d="M385.598 224.01C383.488 225.021 381.14 225.429 378.812 225.189C378.801 226.368 378.713 227.545 378.55 228.713V228.975C378.55 229.263 378.445 229.551 378.38 229.853V230.075C381.372 228.877 383.902 226.751 385.598 224.01Z" fill="#FFC3BD"/>
<path opacity="0.2" d="M385.598 224.01C383.488 225.021 381.14 225.429 378.812 225.189C378.801 226.368 378.713 227.545 378.55 228.713V228.975C378.55 229.263 378.445 229.551 378.38 229.853V230.075C381.372 228.877 383.902 226.751 385.598 224.01Z" fill="black"/>
<path d="M385.598 224.01C386.379 223.643 387.124 223.204 387.825 222.7C389.491 221.582 390.931 220.16 392.069 218.508C392.568 217.776 393.006 217.005 393.379 216.202C393.13 216.202 392.882 216.333 392.646 216.36C390.458 216.556 389.842 214.093 390.838 211.893C391.175 211.148 391.616 210.456 392.148 209.836C391.576 207.966 391.716 205.95 392.541 204.177C390.55 200.089 388.441 196.317 388.244 193.579C383.342 195.094 378.256 195.927 373.127 196.055C372.93 196.356 372.747 196.683 372.55 196.998C372.994 196.996 373.436 197.062 373.86 197.194C373.916 197.215 373.966 197.246 374.009 197.286C374.052 197.326 374.087 197.374 374.112 197.428C374.136 197.481 374.149 197.539 374.151 197.598C374.153 197.657 374.143 197.716 374.122 197.771C374.081 197.883 373.997 197.974 373.89 198.025C373.782 198.077 373.659 198.084 373.546 198.046C373.075 197.903 372.578 197.867 372.092 197.941C369.625 202.912 368.423 208.415 368.594 213.962C368.638 216.766 369.712 219.455 371.611 221.518C373.509 223.581 376.101 224.874 378.891 225.15C381.188 225.387 383.508 224.993 385.598 224.01ZM382.677 198.282C383.39 198.422 384.059 198.734 384.625 199.19C385.191 199.647 385.637 200.234 385.925 200.902C385.976 201.012 385.983 201.137 385.944 201.251C385.905 201.366 385.823 201.461 385.716 201.517C385.607 201.562 385.484 201.562 385.375 201.517C385.316 201.501 385.262 201.471 385.216 201.43C385.171 201.39 385.136 201.339 385.113 201.282C384.875 200.753 384.512 200.289 384.056 199.931C383.6 199.573 383.064 199.33 382.493 199.225C382.375 199.205 382.269 199.142 382.196 199.047C382.123 198.952 382.089 198.833 382.1 198.714C382.106 198.647 382.126 198.582 382.159 198.523C382.192 198.465 382.238 198.414 382.293 198.376C382.348 198.337 382.411 198.311 382.477 198.299C382.544 198.287 382.612 198.29 382.677 198.308V198.282ZM382.218 204.753C382.437 204.917 382.598 205.146 382.681 205.407C382.763 205.667 382.761 205.947 382.677 206.207C382.532 206.967 382.009 207.517 381.511 207.399C381.013 207.281 380.725 206.613 380.869 205.853C380.941 205.468 381.139 205.118 381.432 204.858C381.024 204.642 380.704 204.289 380.528 203.862L382.218 204.753ZM371.476 204.203C371.547 203.824 371.74 203.479 372.026 203.22C371.625 202.994 371.311 202.638 371.135 202.212L372.852 203.089C373.063 203.259 373.219 203.488 373.301 203.747C373.382 204.006 373.386 204.283 373.31 204.543C373.153 205.303 372.642 205.853 372.144 205.749C371.646 205.644 371.332 204.989 371.476 204.229V204.203ZM374.515 210.569C374.03 210.598 373.543 210.52 373.091 210.342C372.638 210.163 372.23 209.887 371.895 209.535C373.298 208.264 374.523 206.81 375.537 205.212L374.515 210.569ZM377.044 214.08C376.985 214.065 376.935 214.028 376.904 213.977C376.872 213.925 376.861 213.864 376.873 213.805C376.886 213.748 376.92 213.698 376.969 213.666C377.018 213.634 377.078 213.623 377.135 213.635C378.081 213.838 379.061 213.816 379.996 213.571C380.932 213.325 381.796 212.862 382.519 212.22C382.54 212.199 382.565 212.181 382.592 212.169C382.619 212.157 382.649 212.151 382.679 212.15C382.708 212.15 382.738 212.155 382.766 212.166C382.793 212.177 382.819 212.193 382.84 212.213C382.862 212.234 382.879 212.259 382.891 212.286C382.903 212.313 382.909 212.343 382.91 212.373C382.911 212.402 382.905 212.432 382.895 212.46C382.884 212.488 382.868 212.513 382.847 212.534C381.629 213.656 380.022 214.257 378.367 214.211C377.924 214.207 377.482 214.172 377.044 214.106V214.08Z" fill="#FFC3BD"/>
<path d="M394.31 208.29C393.76 206.98 393.131 205.578 392.489 204.268C391.664 206.042 391.525 208.057 392.096 209.928C392.677 209.196 393.441 208.631 394.31 208.29Z" fill="#263238"/>
<path d="M381.406 204.897C381.113 205.157 380.915 205.508 380.843 205.893C380.699 206.652 380.987 207.347 381.485 207.438C381.982 207.53 382.506 207.006 382.651 206.246C382.735 205.986 382.737 205.706 382.655 205.446C382.572 205.185 382.411 204.956 382.192 204.792C382.082 204.877 381.951 204.931 381.813 204.949C381.675 204.967 381.535 204.949 381.406 204.897Z" fill="#263238"/>
<path d="M373.35 204.583C373.425 204.322 373.422 204.045 373.34 203.786C373.259 203.528 373.103 203.299 372.891 203.129C372.778 203.212 372.646 203.266 372.506 203.287C372.367 203.307 372.225 203.293 372.092 203.247C371.806 203.505 371.613 203.85 371.542 204.229C371.398 204.989 371.686 205.683 372.184 205.788C372.682 205.893 373.127 205.343 373.35 204.583Z" fill="#263238"/>
<path d="M372.826 203.129L371.11 202.251C371.286 202.677 371.6 203.033 372.001 203.26C372.139 203.309 372.286 203.323 372.431 203.3C372.575 203.277 372.711 203.218 372.826 203.129Z" fill="#263238"/>
<path d="M371.909 209.6C372.244 209.953 372.652 210.228 373.105 210.407C373.557 210.586 374.043 210.664 374.529 210.635L375.564 205.277C374.546 206.876 373.316 208.33 371.909 209.6Z" fill="#ED847E"/>
<path d="M382.821 212.22C382.777 212.178 382.719 212.154 382.658 212.154C382.596 212.154 382.538 212.178 382.494 212.22C381.773 212.858 380.914 213.318 379.983 213.564C379.053 213.81 378.077 213.834 377.136 213.635C377.079 213.623 377.019 213.634 376.97 213.666C376.921 213.698 376.887 213.748 376.874 213.805C376.862 213.864 376.873 213.925 376.904 213.976C376.936 214.028 376.986 214.065 377.044 214.08C377.477 214.154 377.915 214.198 378.354 214.211C380.009 214.257 381.616 213.656 382.834 212.534C382.871 212.49 382.89 212.433 382.888 212.375C382.886 212.317 382.862 212.262 382.821 212.22Z" fill="#263238"/>
<path d="M394.31 208.29C393.44 208.632 392.677 209.196 392.096 209.928C391.564 210.548 391.123 211.24 390.786 211.984C389.79 214.185 390.406 216.648 392.594 216.451C392.829 216.451 393.078 216.347 393.327 216.294C394.356 216.021 395.295 215.484 396.052 214.735C395.778 212.515 395.191 210.346 394.31 208.29Z" fill="#FFC3BD"/>
<path d="M388.494 191.679C388.573 189.793 389.647 189.334 391.114 189.623C383.176 184.985 371.53 190.068 370.665 196.173C371.451 196.173 372.263 196.173 373.102 196.173C378.23 196.045 383.317 195.212 388.219 193.697C388.143 193.012 388.237 192.319 388.494 191.679Z" fill="#263238"/>
<path d="M388.493 191.679C388.245 192.303 388.151 192.977 388.218 193.644C388.415 196.421 390.524 200.194 392.515 204.242C393.157 205.552 393.825 206.862 394.336 208.264C395.218 210.319 395.804 212.489 396.078 214.709C396.315 216.692 396.025 218.702 395.24 220.539C398.397 216.949 399.694 210.517 400.218 205.041C400.518 201.832 400.61 198.607 400.493 195.387C400.493 195.387 394.65 190.33 391.113 189.623C389.646 189.334 388.572 189.793 388.493 191.679Z" fill="#263238"/>
<path d="M382.52 199.212C383.091 199.317 383.627 199.56 384.083 199.918C384.54 200.276 384.902 200.739 385.14 201.268C385.163 201.325 385.198 201.376 385.243 201.417C385.289 201.458 385.343 201.488 385.402 201.504C385.511 201.549 385.634 201.549 385.743 201.504C385.85 201.448 385.932 201.353 385.971 201.238C386.01 201.124 386.003 200.998 385.953 200.889C385.664 200.221 385.218 199.634 384.652 199.177C384.086 198.721 383.417 198.409 382.704 198.269C382.584 198.254 382.463 198.287 382.368 198.36C382.272 198.434 382.209 198.542 382.193 198.662C382.168 198.778 382.188 198.899 382.249 199.001C382.31 199.103 382.407 199.178 382.52 199.212Z" fill="#263238"/>
<path d="M373.468 198.111C373.581 198.149 373.705 198.142 373.812 198.091C373.92 198.039 374.003 197.948 374.045 197.836C374.066 197.781 374.076 197.723 374.074 197.664C374.072 197.605 374.058 197.547 374.034 197.493C374.01 197.44 373.975 197.391 373.932 197.351C373.889 197.311 373.838 197.28 373.783 197.26C373.359 197.128 372.917 197.061 372.473 197.063C371.452 197.059 370.458 197.391 369.643 198.006C369.549 198.081 369.487 198.19 369.47 198.309C369.453 198.429 369.482 198.55 369.552 198.648C369.624 198.738 369.726 198.799 369.84 198.819C369.901 198.832 369.964 198.832 370.025 198.818C370.086 198.805 370.144 198.778 370.193 198.74C370.708 198.344 371.318 198.091 371.962 198.006C372.465 197.925 372.981 197.96 373.468 198.111Z" fill="#263238"/>
<path d="M381.407 204.897C381.535 204.949 381.676 204.967 381.814 204.949C381.951 204.931 382.082 204.877 382.193 204.792L380.477 203.915C380.661 204.341 380.991 204.689 381.407 204.897Z" fill="#263238"/>
<path d="M402.367 268.969C402.367 268.432 402.445 267.856 402.472 267.306C401.738 266.14 400.991 264.961 400.218 263.795L398.712 261.555L398.24 261.804C399.434 264.292 400.814 266.687 402.367 268.969Z" fill="#263238"/>
<path opacity="0.2" d="M402.367 268.969C402.367 268.432 402.445 267.856 402.472 267.306C401.738 266.14 400.991 264.961 400.218 263.795L398.712 261.555L398.24 261.804C399.434 264.292 400.814 266.687 402.367 268.969Z" fill="black"/>
<path d="M406.257 279.816V280.026C411.482 277.202 416.295 273.676 420.562 269.546C419.847 267.432 419.007 265.363 418.047 263.349C416.776 260.61 415.364 257.938 413.816 255.345C412.506 253.092 411.117 250.944 409.689 248.795C408.379 251.533 404.659 258.122 398.751 261.515L400.257 263.755C401.03 264.921 401.777 266.1 402.511 267.266C403.153 268.288 403.821 269.323 404.358 270.345C405.366 272.113 406.31 273.895 406.978 275.585L406.847 276.475C406.69 277.563 406.493 278.676 406.257 279.816Z" fill="#FFC3BD"/>
<path d="M389.738 254.9C389.738 254.9 393.092 258.253 397.022 262.406C397.441 262.223 397.847 262.013 398.24 261.803L398.712 261.555C404.62 258.162 408.314 251.572 409.65 248.834C410.03 248.062 410.227 247.59 410.227 247.59C410.227 247.59 406.428 241.302 401.214 238.132C399.97 237.346 398.594 236.791 397.153 236.494C387.865 238.865 384.839 244.682 389.738 254.9Z" fill="#263238"/>
<path d="M452.553 123.494H471.011C471.515 123.485 471.998 123.288 472.364 122.941C472.73 122.595 472.953 122.123 472.989 121.62C473.005 121.381 472.972 121.14 472.891 120.914C472.809 120.688 472.682 120.481 472.518 120.307C472.353 120.132 472.154 119.993 471.933 119.899C471.712 119.805 471.474 119.758 471.233 119.76H452.762C452.26 119.768 451.779 119.964 451.414 120.308C451.048 120.652 450.823 121.12 450.784 121.62C450.766 121.862 450.798 122.105 450.879 122.334C450.96 122.562 451.088 122.771 451.255 122.948C451.421 123.124 451.623 123.264 451.846 123.358C452.07 123.452 452.31 123.498 452.553 123.494Z" fill="#7F5AF0"/>
<path d="M452.173 129.926H470.631C471.135 129.917 471.618 129.72 471.984 129.373C472.35 129.027 472.573 128.555 472.609 128.052C472.627 127.812 472.595 127.57 472.515 127.342C472.435 127.115 472.308 126.906 472.143 126.73C471.978 126.554 471.778 126.414 471.556 126.319C471.334 126.224 471.095 126.177 470.854 126.179H452.396C451.889 126.184 451.403 126.38 451.034 126.727C450.665 127.074 450.441 127.547 450.404 128.052C450.39 128.293 450.425 128.535 450.508 128.761C450.59 128.988 450.718 129.196 450.884 129.371C451.05 129.547 451.249 129.687 451.471 129.782C451.693 129.877 451.932 129.926 452.173 129.926Z" fill="#7F5AF0"/>
<path d="M302.845 129.926H321.303C321.809 129.917 322.293 129.721 322.661 129.374C323.03 129.028 323.255 128.557 323.294 128.052C323.311 127.811 323.277 127.569 323.195 127.341C323.113 127.114 322.985 126.905 322.819 126.729C322.653 126.554 322.453 126.414 322.23 126.319C322.008 126.224 321.768 126.177 321.526 126.179H303.068C302.563 126.185 302.079 126.381 301.712 126.728C301.345 127.075 301.123 127.548 301.09 128.052C301.074 128.293 301.107 128.534 301.188 128.76C301.269 128.987 301.396 129.195 301.56 129.371C301.725 129.546 301.924 129.686 302.145 129.782C302.366 129.877 302.605 129.926 302.845 129.926Z" fill="#7F5AF0"/>
<path d="M451.793 136.345H470.29C470.797 136.339 471.283 136.144 471.651 135.797C472.02 135.45 472.245 134.977 472.281 134.471C472.296 134.231 472.261 133.989 472.178 133.762C472.096 133.536 471.968 133.328 471.802 133.153C471.636 132.977 471.436 132.837 471.215 132.742C470.993 132.647 470.754 132.598 470.513 132.598H452.016C451.51 132.606 451.026 132.803 450.658 133.149C450.289 133.496 450.064 133.967 450.024 134.471C450.008 134.713 450.042 134.955 450.124 135.183C450.205 135.41 450.333 135.619 450.499 135.794C450.666 135.97 450.866 136.11 451.089 136.205C451.311 136.299 451.551 136.347 451.793 136.345Z" fill="#7F5AF0"/>
<path d="M427.531 371.372H315.867C313.782 371.391 311.715 370.979 309.796 370.161C307.878 369.343 306.15 368.137 304.72 366.619C303.29 365.101 302.19 363.303 301.489 361.339C300.787 359.375 300.5 357.287 300.645 355.206C300.959 350.858 302.892 346.786 306.061 343.794C309.231 340.801 313.408 339.105 317.767 339.041H429.431C431.516 339.022 433.583 339.434 435.502 340.252C437.42 341.07 439.148 342.276 440.578 343.794C442.008 345.312 443.108 347.11 443.809 349.074C444.51 351.038 444.798 353.126 444.653 355.206C444.339 359.554 442.406 363.627 439.237 366.619C436.067 369.612 431.89 371.308 427.531 371.372Z" fill="white"/>
<path d="M424.991 414.825H313.313C311.228 414.84 309.162 414.425 307.244 413.605C305.327 412.785 303.599 411.577 302.17 410.059C300.741 408.54 299.641 406.742 298.939 404.778C298.237 402.814 297.949 400.727 298.091 398.646C298.415 394.305 300.351 390.242 303.52 387.258C306.689 384.273 310.86 382.583 315.213 382.52H426.89C428.976 382.5 431.043 382.913 432.961 383.731C434.879 384.549 436.608 385.755 438.037 387.273C439.467 388.791 440.567 390.589 441.268 392.553C441.97 394.517 442.257 396.605 442.112 398.685C441.789 403.028 439.853 407.092 436.684 410.078C433.516 413.065 429.345 414.758 424.991 414.825Z" fill="white"/>
<path d="M422.436 458.264H310.771C308.686 458.284 306.619 457.871 304.701 457.053C302.782 456.235 301.054 455.029 299.624 453.511C298.195 451.993 297.094 450.195 296.393 448.231C295.692 446.267 295.404 444.179 295.549 442.099C295.863 437.75 297.795 433.676 300.965 430.681C304.134 427.686 308.311 425.988 312.671 425.92H424.335C426.421 425.903 428.488 426.316 430.407 427.136C432.325 427.955 434.053 429.163 435.483 430.682C436.912 432.201 438.012 434 438.713 435.964C439.415 437.929 439.702 440.018 439.557 442.099C439.243 446.447 437.31 450.519 434.141 453.512C430.971 456.504 426.795 458.2 422.436 458.264Z" fill="white"/>
<path d="M324.542 361C327.942 357.699 328.177 352.426 325.067 349.224C321.957 346.021 316.68 346.102 313.281 349.403C309.881 352.705 309.646 357.977 312.756 361.179C315.866 364.382 321.143 364.302 324.542 361Z" fill="#7F5AF0"/>
<path d="M317.924 390.773L319.024 394.926C319.088 395.154 319.225 395.355 319.414 395.497C319.604 395.639 319.835 395.715 320.072 395.712H324.434C324.681 395.714 324.919 395.797 325.114 395.948C325.308 396.098 325.448 396.308 325.512 396.546C325.576 396.784 325.56 397.036 325.467 397.263C325.374 397.491 325.209 397.682 324.998 397.808L321.317 400.428C321.107 400.567 320.947 400.768 320.858 401.003C320.769 401.238 320.755 401.495 320.819 401.738L321.919 405.89C321.985 406.129 321.975 406.382 321.892 406.614C321.808 406.847 321.656 407.049 321.454 407.192C321.252 407.335 321.012 407.412 320.764 407.414C320.517 407.415 320.276 407.341 320.072 407.2L316.692 404.58C316.501 404.446 316.272 404.373 316.037 404.373C315.803 404.373 315.574 404.446 315.382 404.58L311.701 407.2C311.508 407.354 311.27 407.438 311.023 407.44C310.777 407.441 310.537 407.36 310.342 407.209C310.147 407.058 310.008 406.846 309.949 406.607C309.889 406.368 309.911 406.116 310.011 405.89L311.596 401.738C311.694 401.513 311.713 401.262 311.651 401.024C311.59 400.787 311.45 400.577 311.256 400.428L307.876 397.808C307.69 397.648 307.558 397.434 307.498 397.197C307.437 396.959 307.452 396.708 307.539 396.479C307.627 396.25 307.783 396.053 307.986 395.916C308.189 395.778 308.43 395.707 308.675 395.712H313.037C313.285 395.712 313.526 395.637 313.73 395.496C313.933 395.356 314.089 395.157 314.177 394.926L315.71 390.773C315.78 390.533 315.925 390.323 316.125 390.173C316.324 390.023 316.567 389.942 316.817 389.942C317.066 389.942 317.309 390.023 317.509 390.173C317.708 390.323 317.854 390.533 317.924 390.773Z" fill="#7F5AF0"/>
<path d="M320.95 437.697L320.255 449.356C320.222 449.845 320.005 450.303 319.648 450.639C319.291 450.974 318.82 451.162 318.33 451.164H308.125C307.899 451.151 307.678 451.093 307.476 450.993C307.273 450.893 307.092 450.753 306.945 450.582C306.797 450.411 306.685 450.212 306.615 449.997C306.546 449.782 306.52 449.555 306.54 449.33L307.391 434.815C307.421 434.326 307.635 433.867 307.989 433.529C308.344 433.191 308.814 433 309.304 432.994H316.64L320.95 437.697Z" fill="#7F5AF0"/>
<path d="M316.575 433.021L320.99 437.697H318.121C317.887 437.7 317.656 437.654 317.442 437.562C317.227 437.471 317.033 437.336 316.873 437.166C316.714 436.996 316.59 436.795 316.512 436.576C316.434 436.356 316.401 436.122 316.418 435.889L316.575 433.021ZM315.409 429.811L315.226 432.942L315.055 435.811C315.033 436.229 315.094 436.647 315.236 437.041C315.378 437.434 315.597 437.796 315.881 438.103C316.169 438.407 316.516 438.649 316.902 438.814C317.287 438.978 317.702 439.062 318.121 439.06H324.121L321.972 436.767L317.571 432.09L315.409 429.811Z" fill="white"/>
<path opacity="0.2" d="M423.785 353.49H340.22C339.882 353.493 339.547 353.426 339.236 353.293C338.925 353.16 338.644 352.965 338.412 352.719C338.18 352.473 338.001 352.182 337.886 351.864C337.771 351.546 337.723 351.208 337.744 350.87C337.8 350.165 338.116 349.505 338.632 349.02C339.148 348.536 339.827 348.261 340.535 348.25H424.086C424.425 348.248 424.76 348.315 425.071 348.448C425.382 348.58 425.662 348.776 425.894 349.022C426.127 349.267 426.306 349.558 426.421 349.877C426.536 350.195 426.584 350.533 426.562 350.87C426.51 351.575 426.196 352.235 425.682 352.719C425.168 353.204 424.491 353.479 423.785 353.49Z" fill="#7F5AF0"/>
<path opacity="0.2" d="M407.947 362.189H339.723C339.384 362.191 339.048 362.124 338.737 361.991C338.425 361.859 338.144 361.664 337.91 361.418C337.677 361.173 337.497 360.882 337.38 360.564C337.264 360.246 337.214 359.907 337.234 359.569C337.289 358.863 337.606 358.203 338.122 357.719C338.638 357.234 339.316 356.96 340.024 356.949H408.249C408.588 356.945 408.925 357.01 409.237 357.142C409.55 357.274 409.832 357.469 410.066 357.715C410.299 357.961 410.48 358.253 410.595 358.572C410.711 358.891 410.759 359.23 410.738 359.569C410.68 360.273 410.362 360.931 409.847 361.415C409.331 361.899 408.654 362.175 407.947 362.189Z" fill="#7F5AF0"/>
<path opacity="0.2" d="M421.034 400.362H397.978C397.269 400.37 396.589 400.644 396.073 401.129C395.556 401.614 395.24 402.275 395.188 402.982C395.166 403.32 395.214 403.658 395.329 403.976C395.444 404.294 395.623 404.585 395.855 404.831C396.088 405.077 396.368 405.272 396.679 405.405C396.99 405.537 397.325 405.605 397.664 405.602H420.72C421.428 405.594 422.108 405.321 422.625 404.835C423.142 404.35 423.457 403.689 423.51 402.982C423.531 402.645 423.483 402.306 423.368 401.988C423.253 401.67 423.074 401.379 422.842 401.133C422.61 400.888 422.329 400.692 422.018 400.559C421.707 400.427 421.372 400.36 421.034 400.362Z" fill="#7F5AF0"/>
<path opacity="0.2" d="M384.498 400.362H337.482C336.773 400.37 336.093 400.644 335.576 401.129C335.06 401.614 334.744 402.275 334.691 402.982C334.668 403.32 334.715 403.659 334.829 403.978C334.943 404.297 335.122 404.589 335.355 404.835C335.587 405.082 335.869 405.277 336.181 405.409C336.493 405.541 336.829 405.607 337.167 405.602H384.196C384.904 405.591 385.582 405.317 386.099 404.832C386.615 404.348 386.931 403.688 386.987 402.982C387.008 402.644 386.96 402.304 386.844 401.985C386.728 401.666 386.548 401.375 386.314 401.129C386.081 400.883 385.799 400.688 385.486 400.556C385.173 400.424 384.837 400.358 384.498 400.362Z" fill="#7F5AF0"/>
<path opacity="0.2" d="M406.218 391.69H337.98C337.271 391.698 336.591 391.971 336.075 392.457C335.558 392.942 335.242 393.603 335.19 394.31C335.168 394.647 335.216 394.986 335.331 395.304C335.446 395.622 335.625 395.913 335.857 396.159C336.09 396.405 336.37 396.6 336.681 396.733C336.992 396.865 337.327 396.932 337.666 396.93H405.89C406.598 396.919 407.276 396.645 407.792 396.16C408.309 395.675 408.625 395.016 408.681 394.31C408.702 393.974 408.654 393.636 408.54 393.319C408.426 393.002 408.248 392.712 408.017 392.466C407.786 392.22 407.508 392.025 407.198 391.891C406.889 391.758 406.555 391.689 406.218 391.69Z" fill="#7F5AF0"/>
<path opacity="0.2" d="M418.48 443.802H334.928C334.221 443.816 333.545 444.091 333.029 444.575C332.514 445.059 332.196 445.717 332.138 446.422C332.116 446.76 332.165 447.1 332.28 447.419C332.396 447.738 332.576 448.03 332.81 448.276C333.044 448.522 333.326 448.717 333.638 448.848C333.951 448.98 334.288 449.046 334.627 449.042H418.179C418.885 449.031 419.562 448.756 420.076 448.271C420.59 447.786 420.904 447.126 420.956 446.422C420.977 446.084 420.929 445.746 420.814 445.428C420.7 445.11 420.52 444.819 420.288 444.573C420.056 444.327 419.775 444.132 419.464 443.999C419.153 443.867 418.818 443.799 418.48 443.802Z" fill="#7F5AF0"/>
<path opacity="0.2" d="M403.664 435.117H335.439C334.731 435.127 334.053 435.402 333.537 435.887C333.021 436.371 332.704 437.031 332.649 437.737C332.627 438.074 332.675 438.412 332.79 438.73C332.905 439.049 333.084 439.34 333.316 439.585C333.549 439.831 333.829 440.026 334.14 440.159C334.451 440.292 334.786 440.359 335.125 440.357H403.362C404.069 440.345 404.746 440.07 405.259 439.585C405.773 439.101 406.087 438.441 406.14 437.737C406.161 437.399 406.113 437.061 405.998 436.743C405.883 436.425 405.704 436.134 405.472 435.888C405.24 435.642 404.959 435.447 404.648 435.314C404.337 435.181 404.002 435.114 403.664 435.117Z" fill="#7F5AF0"/>
</svg>
